<svg width="24" height="24" viewBox="0 0 24 24" fill="none" xmlns="http://www.w3.org/2000/svg">
<path d="M23.2832 0.122986C23.4472 -0.0410021 23.713 -0.0410021 23.877 0.122986C24.0409 0.286978 24.0409 0.552766 23.877 0.716736L12.5938 11.9999L23.877 23.2831C24.0409 23.4471 24.0409 23.7129 23.877 23.8769C23.713 24.0409 23.4472 24.0409 23.2832 23.8769L12 12.5937L0.716797 23.8769C0.552824 24.0409 0.287038 24.0408 0.123047 23.8769C-0.0409409 23.7129 -0.0409409 23.4471 0.123047 23.2831L11.4062 11.9999L0.123047 0.716736C-0.0409406 0.552748 -0.0409399 0.286974 0.123047 0.122986C0.287035 -0.0409989 0.55281 -0.0410011 0.716797 0.122986L12 11.4062L23.2832 0.122986Z" fill="#052B57"/>
</svg>
